<svg viewBox="0 0 113.6 114.95">
  <path d="M113.6 20.75v-1c0-.2-.2-.4-.2-.6 0-.2-.2-.2-.2-.4v-.2c-.2-.2-.4-.6-.6-.8h-.2c-.2-.2-.6-.4-1-.4L57.8.15c-.6-.2-1.4-.2-2 0L2.2 17.35c-.4.2-.6.2-.8.4 0 0-.2 0-.2.2-.2.2-.4.4-.6.8v.2s-.2.2-.2.4-.2.4-.2.6c0 .4-.2.8-.2 1l4.6 64.6c0 1.2.8 2.2 1.8 2.8l49.2 26.4h.2s.4.2.6.2h2c.2 0 .4-.2.6-.2h.2l49.2-26.4c1-.6 1.8-1.6 1.8-2.8zM56.4 6.95l14.2 4.6-43.8 17.2-15-7.4zm-3.4 98.8l-42.4-22.8-4-56.6 15.8 7.8 1.2 20.2 13.2 7.2-.4-20.4 16.6 8.2zm3.4-62.6l-15.6-7.8 43.4-19.6 16.8 5.4zm45.8 39.8l-42.4 22.8v-56.4l46.4-22.8z"></path>
</svg>