<svg viewBox="0 0 108.689 71.761">
  <path d="M16.133 64.391c-4.575-4.197-8.25-8.385-8.25-9.401 0-1.442 2.332-2.609 10.963-5.485 6.694-2.23 11.495-3.333 12.33-2.832.752.45 5.056 3.97 9.565 7.82 5.682 4.85 8.113 7.583 7.92 8.898-.205 1.397-2.652 2.767-9.278 5.196-13.102 4.801-13.53 4.725-23.25-4.196zm19.325 2.207c3.809-1.317 7.694-2.708 8.633-3.09 1.366-.557.097-2.084-6.327-7.617-4.42-3.807-8.338-6.744-8.708-6.528-.37.216-4.684 1.608-9.587 3.094l-8.914 2.7 7.414 6.87c4.078 3.779 8.123 6.892 8.989 6.918.866.026 4.69-1.03 8.5-2.347zm-8.352-3.162c-1.223-.856-2.223-2.157-2.223-2.891s-1.125-1.618-2.5-1.963c-1.625-.408-2.5-1.328-2.5-2.63 0-4.32 9.617-5.14 10.722-.913.28 1.074 1.269 1.954 2.195 1.954 4.316 0 5.452 5.055 1.536 6.84-3.362 1.531-4.572 1.465-7.23-.397zm6.533-2.693c-.472-1.438-5.756-2.34-5.756-.983 0 1.51 1.216 2.233 3.75 2.233 1.486 0 2.259-.482 2.006-1.25zm-5.756-4.667c0-1.171-2.128-1.925-3.75-1.329-2.165.796-1.358 2.246 1.25 2.246 1.375 0 2.5-.412 2.5-.917zm45.058 2.85c-6.292-2.154-11.82-4.295-12.282-4.757-.463-.463-.546-1.611-.185-2.552.63-1.641 21.227-19.675 22.36-19.576.302.026 6.174 1.939 13.049 4.25 10.318 3.469 12.553 4.57 12.8 6.31.404 2.82-18.712 20.43-22.053 20.316-1.236-.042-7.396-1.838-13.69-3.992zm24.036-7.073c4.898-4.477 8.906-8.502 8.906-8.945 0-.442-5.185-2.422-11.522-4.4L82.839 34.91l-9.905 8.292c-5.448 4.56-9.938 8.531-9.978 8.825-.093.683 20.819 7.764 23.27 7.88 1.014.047 5.852-3.577 10.75-8.054zm-12.538 3.23c-.31-.5-.29-1.619.042-2.486.985-2.566-4.027-3.95-7.605-2.1-3.742 1.935-5.987 2.018-3.957.145 2.54-2.343 16.969-10.649 18.5-10.649 2.008 0 1.913.49-1.714 8.75-3.088 7.032-4.092 8.24-5.266 6.34zm2.86-8.733c.955-2.486.126-2.623-2.524-.415-2.355 1.961-2.36 1.992-.25 2.025 1.18.018 2.428-.706 2.775-1.61zm-57.916-7.917c-13.75-2.963-26.04-5.639-27.31-5.948-1.895-.46-2.256-1.121-2-3.67l.31-3.11 40.5-12.85C63.158 5.789 81.946.004 82.633 0c.764-.004 1.25 1.358 1.25 3.505 0 2.952-2.194 6.456-13.75 21.957-7.563 10.144-14.2 18.425-14.75 18.401-.55-.024-12.25-2.467-26-5.43zM66.868 20.39C73.54 11.26 78.41 4.002 77.69 4.264c-.72.261-16.693 5.36-35.497 11.33-18.805 5.969-34 11.043-33.768 11.275.326.326 42.6 9.62 45.635 10.032.373.05 6.136-7.38 12.807-16.51z"></path>
</svg>