<svg viewBox="0 0 60.615 102">
  <path d="M35.8 44.4v-28c5 .8 9.8 3 14.8 6.6 1 .8 2 1 2.8 1 2.8 0 4.8-2 4.8-4.6 0-2.2-1.4-3.4-2.6-4.2-6.4-4.4-12.4-6.6-19.6-7.6V4.2C36 2 34 0 31.8 0s-4.2 2-4.2 4.2v3.2C13.2 8.2 3 17.2 3 29.4s7.2 18.8 24.8 23.2V81c-7.2-1-13.4-3.8-20-9.4-.4-.4-1.6-1-3-1-2.6 0-4.8 2-4.8 4.6 0 1.6.8 3 2.2 4 7.8 6.2 16.2 9.6 25.2 10.4v8.2c0 2.2 2 4.2 4.2 4.2s4.2-2 4.2-4.2V90c15-1.2 24.8-10.2 24.8-22.4.4-12.4-7-19.2-24.8-23.2zM51.2 68c0 7.4-6 12.6-15.4 13.4V54.2C48.6 57.6 51.2 62 51.2 68zm-23-52v26.4c-12.6-3.4-15-7.6-15-13.8 0-7 6-12 15-12.6z"></path>
</svg>