<?xml version="1.0" encoding="UTF-8" standalone="no"?>
<svg
   xmlns:dc="http://purl.org/dc/elements/1.1/"
   xmlns:cc="http://creativecommons.org/ns#"
   xmlns:rdf="http://www.w3.org/1999/02/22-rdf-syntax-ns#"
   xmlns:svg="http://www.w3.org/2000/svg"
   xmlns="http://www.w3.org/2000/svg"
   xmlns:sodipodi="http://sodipodi.sourceforge.net/DTD/sodipodi-0.dtd"
   xmlns:inkscape="http://www.inkscape.org/namespaces/inkscape"
   data-svg="logo-myosmo-svg"
   viewBox="0 0 399.70002 87.900004"
   version="1.1"
   id="svg30"
   sodipodi:docname="logo-item.svg"
   width="399.70001"
   height="87.900002"
   inkscape:version="0.92.2 5c3e80d, 2017-08-06">
  <metadata
     id="metadata36">
    <rdf:RDF>
      <cc:Work
         rdf:about="">
        <dc:format>image/svg+xml</dc:format>
        <dc:type
           rdf:resource="http://purl.org/dc/dcmitype/StillImage" />
      </cc:Work>
    </rdf:RDF>
  </metadata>
  <defs
     id="defs34" />
  <sodipodi:namedview
     pagecolor="#ffffff"
     bordercolor="#666666"
     borderopacity="1"
     objecttolerance="10"
     gridtolerance="10"
     guidetolerance="10"
     inkscape:pageopacity="0"
     inkscape:pageshadow="2"
     inkscape:window-width="640"
     inkscape:window-height="480"
     id="namedview32"
     showgrid="false"
     inkscape:zoom="0.96890818"
     inkscape:cx="199.85"
     inkscape:cy="44.950002"
     inkscape:window-x="0"
     inkscape:window-y="0"
     inkscape:window-maximized="0"
     inkscape:current-layer="svg30" />
  <g
     id="g28"
     transform="translate(-7.6,-8.4)">
    <path
       d="m 7.6,49.1 c 0,-1.5 1.2,-2.8 2.8,-2.8 1.6,0 2.8,1.2 2.8,2.8 V 53 c 2.5,-3.7 5.8,-7.2 12.2,-7.2 6.1,0 10.1,3.3 12.1,7.5 2.7,-4.2 6.7,-7.5 13.3,-7.5 8.7,0 14,5.8 14,15.2 v 20.9 c 0,1.6 -1.2,2.8 -2.8,2.8 -1.6,0 -2.8,-1.2 -2.8,-2.8 V 62.3 C 59.2,55 55.6,50.9 49.4,50.9 43.7,50.9 39,55.1 39,62.6 v 19.3 c 0,1.6 -1.2,2.8 -2.8,2.8 -1.5,0 -2.8,-1.2 -2.8,-2.8 V 62.2 C 33.4,55.1 29.7,51 23.7,51 17.7,51 13.2,56 13.2,62.9 V 82 c 0,1.6 -1.2,2.8 -2.8,2.8 -1.6,0 -2.8,-1.2 -2.8,-2.8 z m 67.8,46.1 c -0.9,-0.4 -1.8,-1.1 -1.8,-2.4 0,-1.4 1.2,-2.4 2.4,-2.4 0.5,0 0.9,0.1 1.4,0.3 1.1,0.4 2.2,0.7 4.1,0.7 3.5,0 5.5,-2.1 7.6,-6.7 L 89.4,84.1 73.7,50.6 c -0.2,-0.5 -0.4,-1 -0.4,-1.5 0,-1.5 1.2,-2.8 2.8,-2.8 1.5,0 2.3,0.9 2.8,2.2 L 92,78.1 103.7,48.4 c 0.4,-1.2 1.2,-2.1 2.7,-2.1 1.5,0 2.8,1.2 2.8,2.8 0,0.4 -0.1,0.9 -0.3,1.4 L 94.2,85.6 c -3.3,7.8 -6.9,10.7 -12.6,10.7 -2.5,0 -4.3,-0.5 -6.2,-1.1 z"
       id="path24"
       inkscape:connector-curvature="0" />
    <path
       d="m 298.2,27.8 c 4,-2.8 9,-4.4 14.3,-4.4 C 326,23.4 337,34 337,47 v 32.5 c 0,3.4 -2.9,6.2 -6.4,6 -3.2,-0.2 -5.6,-3 -5.6,-6.2 V 47 c 0,-6.4 -5.6,-11.6 -12.6,-11.6 -6.9,0 -12.6,5.2 -12.6,11.6 v 32.5 c 0,3.4 -2.9,6.2 -6.4,6 -3.2,-0.2 -5.6,-3 -5.6,-6.2 V 47 c 0,-6.4 -5.6,-11.6 -12.6,-11.6 -6.9,0 -12.6,5.2 -12.6,11.6 v 32.5 c 0,3.4 -2.9,6.2 -6.4,6 -3.2,-0.2 -5.6,-3 -5.6,-6.2 V 47 c 0,-13 11,-23.6 24.6,-23.6 5.3,0 10.3,1.6 14.3,4.4 2.7,1.8 6.1,1.8 8.7,0 M 133.9,47.4 c 0,14.9 12.1,27 27,27 14.9,0 27,-12.1 27,-27 0,-14.9 -12.1,-27 -27,-27 -14.9,0 -27,12.1 -27,27 m -12,0 c 0,-21.5 17.5,-39 39,-39 21.5,0 39,17.5 39,39 0,21.5 -17.5,39 -39,39 -21.6,-0.1 -39,-17.5 -39,-39 m 234,7.2 c 0,10.9 8.8,19.7 19.7,19.7 10.9,0 19.7,-8.8 19.7,-19.7 0,-10.9 -8.8,-19.7 -19.7,-19.7 -10.9,0 -19.7,8.9 -19.7,19.7 m -12,0 c 0,-17.5 14.2,-31.7 31.7,-31.7 17.5,0 31.7,14.2 31.7,31.7 0,17.5 -14.2,31.7 -31.7,31.7 -17.5,0 -31.7,-14.2 -31.7,-31.7 M 206,39.4 c 0,8.7 6.4,15.6 16.4,17.6 7.9,1.6 9.6,5.6 9.6,8.7 0,4.3 -3.5,7.8 -7.8,7.8 h -17.5 c -3.3,0 -6,2.7 -6,6 0,3.3 2.7,6 6,6 h 17.5 c 10.9,0 19.8,-8.9 19.8,-19.8 0,-10.4 -7.2,-18.1 -19.2,-20.5 -2.5,-0.5 -6.7,-1.9 -6.7,-5.8 0,-2.7 2.2,-4.9 4.9,-4.9 0.6,0 1.2,0.1 1.8,0.3 3.1,1.2 6.6,-0.4 7.8,-3.5 1.2,-3.1 -0.4,-6.6 -3.5,-7.8 -1.9,-0.7 -4,-1.1 -6.1,-1.1 -9.4,0.1 -17,7.7 -17,17"
       id="path26"
       inkscape:connector-curvature="0" />
  </g>
</svg>
