<svg xmlns="http://www.w3.org/2000/svg" style="display: none"><symbol id="arrow-down" viewBox="0 0 26.025 14.05"><path d="M13 9.825l9.9-9.3c.7-.7 1.9-.7 2.6 0 .7.7.7 1.8 0 2.5l-11.2 10.5c-.7.7-1.9.7-2.6 0L.5 3.025c-.3-.3-.5-.8-.5-1.2 0-.5.2-.9.5-1.3.7-.7 1.9-.7 2.6 0z"/></symbol><symbol id="arrow-right" viewBox="0 0 9.875 16"><path d="M0 14.125L6.125 8 0 1.875 1.875 0l8 8-8 8z"/></symbol><symbol id="dollar" viewBox="0 0 60.615 102"><path d="M35.8 44.4v-28c5 .8 9.8 3 14.8 6.6 1 .8 2 1 2.8 1 2.8 0 4.8-2 4.8-4.6 0-2.2-1.4-3.4-2.6-4.2-6.4-4.4-12.4-6.6-19.6-7.6V4.2C36 2 34 0 31.8 0s-4.2 2-4.2 4.2v3.2C13.2 8.2 3 17.2 3 29.4s7.2 18.8 24.8 23.2V81c-7.2-1-13.4-3.8-20-9.4-.4-.4-1.6-1-3-1-2.6 0-4.8 2-4.8 4.6 0 1.6.8 3 2.2 4 7.8 6.2 16.2 9.6 25.2 10.4v8.2c0 2.2 2 4.2 4.2 4.2s4.2-2 4.2-4.2V90c15-1.2 24.8-10.2 24.8-22.4.4-12.4-7-19.2-24.8-23.2zM51.2 68c0 7.4-6 12.6-15.4 13.4V54.2C48.6 57.6 51.2 62 51.2 68zm-23-52v26.4c-12.6-3.4-15-7.6-15-13.8 0-7 6-12 15-12.6z"/></symbol><symbol id="facebook" viewBox="0 0 264 512"><path d="M76.7 512V283H0v-91h76.7v-71.7C76.7 42.4 124.3 0 193.8 0c33.3 0 61.9 2.5 70.2 3.6V85h-48.2c-37.8 0-45.1 18-45.1 44.3V192H256l-11.7 91h-73.6v229"/></symbol><symbol id="heart" viewBox="0 0 512 512"><path d="M462.3 62.6C407.5 15.9 326 24.3 275.7 76.2L256 96.5l-19.7-20.3C186.1 24.3 104.5 15.9 49.7 62.6c-62.8 53.6-66.1 149.8-9.9 207.9l193.5 199.8c12.5 12.9 32.8 12.9 45.3 0l193.5-199.8c56.3-58.1 53-154.3-9.8-207.9z"/></symbol><symbol id="instagram" viewBox="0 0 448 512"><path d="M224.1 141c-63.6 0-114.9 51.3-114.9 114.9s51.3 114.9 114.9 114.9S339 319.5 339 255.9 287.7 141 224.1 141zm0 189.6c-41.1 0-74.7-33.5-74.7-74.7s33.5-74.7 74.7-74.7 74.7 33.5 74.7 74.7-33.6 74.7-74.7 74.7zm146.4-194.3c0 14.9-12 26.8-26.8 26.8-14.9 0-26.8-12-26.8-26.8s12-26.8 26.8-26.8 26.8 12 26.8 26.8zm76.1 27.2c-1.7-35.9-9.9-67.7-36.2-93.9-26.2-26.2-58-34.4-93.9-36.2-37-2.1-147.9-2.1-184.9 0-35.8 1.7-67.6 9.9-93.9 36.1s-34.4 58-36.2 93.9c-2.1 37-2.1 147.9 0 184.9 1.7 35.9 9.9 67.7 36.2 93.9s58 34.4 93.9 36.2c37 2.1 147.9 2.1 184.9 0 35.9-1.7 67.7-9.9 93.9-36.2 26.2-26.2 34.4-58 36.2-93.9 2.1-37 2.1-147.8 0-184.8zM398.8 388c-7.8 19.6-22.9 34.7-42.6 42.6-29.5 11.7-99.5 9-132.1 9s-102.7 2.6-132.1-9c-19.6-7.8-34.7-22.9-42.6-42.6-11.7-29.5-9-99.5-9-132.1s-2.6-102.7 9-132.1c7.8-19.6 22.9-34.7 42.6-42.6 29.5-11.7 99.5-9 132.1-9s102.7-2.6 132.1 9c19.6 7.8 34.7 22.9 42.6 42.6 11.7 29.5 9 99.5 9 132.1s2.7 102.7-9 132.1z"/></symbol><symbol id="ipad" viewBox="-5.69 0 31.3 31.3"><path d="M17.73 0H2.19A2.19 2.19 0 0 0 0 2.19v26.92a2.19 2.19 0 0 0 2.19 2.19h15.54a2.19 2.19 0 0 0 2.19-2.19V2.19A2.19 2.19 0 0 0 17.73 0zm-7.67 29.82a1 1 0 1 1 1-1 1 1 0 0 1-1 1zm8.13-3.28H1.73V3.76h16.45v22.78z"/></symbol><symbol id="iphone-and-ipad" viewBox="-0.05 0 31.3 31.3"><path d="M10.31 3.69H2.13A2.13 2.13 0 0 0 0 5.81v19.67a2.13 2.13 0 0 0 2.13 2.13h8.19a2.13 2.13 0 0 0 2.13-2.13V5.81a2.13 2.13 0 0 0-2.14-2.12zm-4.18 23a1 1 0 1 1 .9-1 .93.93 0 0 1-.9.96zM11.22 24h-10V6.61h10z"/><path d="M29 0H13.47a2.19 2.19 0 0 0-2.19 2.19v26.92a2.19 2.19 0 0 0 2.19 2.19H29a2.19 2.19 0 0 0 2.19-2.19V2.19A2.19 2.19 0 0 0 29 0zm-7.66 29.82a1 1 0 1 1 1-1 1 1 0 0 1-1 1zm8.13-3.28H13V3.76h16.47z"/></symbol><symbol id="iphone" viewBox="-7.65 -0.285 31.3 31.3"><path d="M13.25 0H2.73A2.73 2.73 0 0 0 0 2.73V28a2.73 2.73 0 0 0 2.73 2.73h10.52A2.73 2.73 0 0 0 16 28V2.73A2.73 2.73 0 0 0 13.27 0zM7.88 29.51A1.23 1.23 0 1 1 9 28.17v.11a1.2 1.2 0 0 1-1.12 1.23zm6.54-3.35H1.57V3.76h12.84v22.4z"/></symbol><symbol id="logo-item" viewBox="0 0 399.7 87.9"><path d="M0 40.7c0-1.5 1.2-2.8 2.8-2.8 1.6 0 2.8 1.2 2.8 2.8v3.9c2.5-3.7 5.8-7.2 12.2-7.2 6.1 0 10.1 3.3 12.1 7.5 2.7-4.2 6.7-7.5 13.3-7.5 8.7 0 14 5.8 14 15.2v20.9c0 1.6-1.2 2.8-2.8 2.8-1.6 0-2.8-1.2-2.8-2.8V53.9c0-7.3-3.6-11.4-9.8-11.4-5.7 0-10.4 4.2-10.4 11.7v19.3c0 1.6-1.2 2.8-2.8 2.8-1.5 0-2.8-1.2-2.8-2.8V53.8c0-7.1-3.7-11.2-9.7-11.2-6 0-10.5 5-10.5 11.9v19.1c0 1.6-1.2 2.8-2.8 2.8-1.6 0-2.8-1.2-2.8-2.8zm67.8 46.1c-.9-.4-1.8-1.1-1.8-2.4 0-1.4 1.2-2.4 2.4-2.4.5 0 .9.1 1.4.3 1.1.4 2.2.7 4.1.7 3.5 0 5.5-2.1 7.6-6.7l.3-.6-15.7-33.5c-.2-.5-.4-1-.4-1.5 0-1.5 1.2-2.8 2.8-2.8 1.5 0 2.3.9 2.8 2.2l13.1 29.6L96.1 40c.4-1.2 1.2-2.1 2.7-2.1 1.5 0 2.8 1.2 2.8 2.8 0 .4-.1.9-.3 1.4L86.6 77.2C83.3 85 79.7 87.9 74 87.9c-2.5 0-4.3-.5-6.2-1.1zm222.8-67.4c4-2.8 9-4.4 14.3-4.4 13.5 0 24.5 10.6 24.5 23.6v32.5c0 3.4-2.9 6.2-6.4 6-3.2-.2-5.6-3-5.6-6.2V38.6c0-6.4-5.6-11.6-12.6-11.6-6.9 0-12.6 5.2-12.6 11.6v32.5c0 3.4-2.9 6.2-6.4 6-3.2-.2-5.6-3-5.6-6.2V38.6c0-6.4-5.6-11.6-12.6-11.6-6.9 0-12.6 5.2-12.6 11.6v32.5c0 3.4-2.9 6.2-6.4 6-3.2-.2-5.6-3-5.6-6.2V38.6c0-13 11-23.6 24.6-23.6 5.3 0 10.3 1.6 14.3 4.4 2.7 1.8 6.1 1.8 8.7 0M126.3 39c0 14.9 12.1 27 27 27s27-12.1 27-27-12.1-27-27-27-27 12.1-27 27m-12 0c0-21.5 17.5-39 39-39s39 17.5 39 39-17.5 39-39 39c-21.6-.1-39-17.5-39-39m234 7.2c0 10.9 8.8 19.7 19.7 19.7 10.9 0 19.7-8.8 19.7-19.7 0-10.9-8.8-19.7-19.7-19.7-10.9 0-19.7 8.9-19.7 19.7m-12 0c0-17.5 14.2-31.7 31.7-31.7s31.7 14.2 31.7 31.7-14.2 31.7-31.7 31.7-31.7-14.2-31.7-31.7M198.4 31c0 8.7 6.4 15.6 16.4 17.6 7.9 1.6 9.6 5.6 9.6 8.7 0 4.3-3.5 7.8-7.8 7.8h-17.5c-3.3 0-6 2.7-6 6s2.7 6 6 6h17.5c10.9 0 19.8-8.9 19.8-19.8 0-10.4-7.2-18.1-19.2-20.5-2.5-.5-6.7-1.9-6.7-5.8 0-2.7 2.2-4.9 4.9-4.9.6 0 1.2.1 1.8.3 3.1 1.2 6.6-.4 7.8-3.5 1.2-3.1-.4-6.6-3.5-7.8-1.9-.7-4-1.1-6.1-1.1-9.4.1-17 7.7-17 17"/></symbol><symbol id="parcel" viewBox="0 0 113.6 114.95"><path d="M113.6 20.75v-1c0-.2-.2-.4-.2-.6 0-.2-.2-.2-.2-.4v-.2c-.2-.2-.4-.6-.6-.8h-.2c-.2-.2-.6-.4-1-.4L57.8.15c-.6-.2-1.4-.2-2 0L2.2 17.35c-.4.2-.6.2-.8.4 0 0-.2 0-.2.2-.2.2-.4.4-.6.8v.2s-.2.2-.2.4-.2.4-.2.6c0 .4-.2.8-.2 1l4.6 64.6c0 1.2.8 2.2 1.8 2.8l49.2 26.4h.2s.4.2.6.2h2c.2 0 .4-.2.6-.2h.2l49.2-26.4c1-.6 1.8-1.6 1.8-2.8zM56.4 6.95l14.2 4.6-43.8 17.2-15-7.4zm-3.4 98.8l-42.4-22.8-4-56.6 15.8 7.8 1.2 20.2 13.2 7.2-.4-20.4 16.6 8.2zm3.4-62.6l-15.6-7.8 43.4-19.6 16.8 5.4zm45.8 39.8l-42.4 22.8v-56.4l46.4-22.8z"/></symbol><symbol id="pieces" viewBox="0 0 108.689 71.761"><path d="M16.133 64.391c-4.575-4.197-8.25-8.385-8.25-9.401 0-1.442 2.332-2.609 10.963-5.485 6.694-2.23 11.495-3.333 12.33-2.832.752.45 5.056 3.97 9.565 7.82 5.682 4.85 8.113 7.583 7.92 8.898-.205 1.397-2.652 2.767-9.278 5.196-13.102 4.801-13.53 4.725-23.25-4.196zm19.325 2.207c3.809-1.317 7.694-2.708 8.633-3.09 1.366-.557.097-2.084-6.327-7.617-4.42-3.807-8.338-6.744-8.708-6.528-.37.216-4.684 1.608-9.587 3.094l-8.914 2.7 7.414 6.87c4.078 3.779 8.123 6.892 8.989 6.918.866.026 4.69-1.03 8.5-2.347zm-8.352-3.162c-1.223-.856-2.223-2.157-2.223-2.891s-1.125-1.618-2.5-1.963c-1.625-.408-2.5-1.328-2.5-2.63 0-4.32 9.617-5.14 10.722-.913.28 1.074 1.269 1.954 2.195 1.954 4.316 0 5.452 5.055 1.536 6.84-3.362 1.531-4.572 1.465-7.23-.397zm6.533-2.693c-.472-1.438-5.756-2.34-5.756-.983 0 1.51 1.216 2.233 3.75 2.233 1.486 0 2.259-.482 2.006-1.25zm-5.756-4.667c0-1.171-2.128-1.925-3.75-1.329-2.165.796-1.358 2.246 1.25 2.246 1.375 0 2.5-.412 2.5-.917zm45.058 2.85c-6.292-2.154-11.82-4.295-12.282-4.757-.463-.463-.546-1.611-.185-2.552.63-1.641 21.227-19.675 22.36-19.576.302.026 6.174 1.939 13.049 4.25 10.318 3.469 12.553 4.57 12.8 6.31.404 2.82-18.712 20.43-22.053 20.316-1.236-.042-7.396-1.838-13.69-3.992zm24.036-7.073c4.898-4.477 8.906-8.502 8.906-8.945 0-.442-5.185-2.422-11.522-4.4L82.839 34.91l-9.905 8.292c-5.448 4.56-9.938 8.531-9.978 8.825-.093.683 20.819 7.764 23.27 7.88 1.014.047 5.852-3.577 10.75-8.054zm-12.538 3.23c-.31-.5-.29-1.619.042-2.486.985-2.566-4.027-3.95-7.605-2.1-3.742 1.935-5.987 2.018-3.957.145 2.54-2.343 16.969-10.649 18.5-10.649 2.008 0 1.913.49-1.714 8.75-3.088 7.032-4.092 8.24-5.266 6.34zm2.86-8.733c.955-2.486.126-2.623-2.524-.415-2.355 1.961-2.36 1.992-.25 2.025 1.18.018 2.428-.706 2.775-1.61zm-57.916-7.917c-13.75-2.963-26.04-5.639-27.31-5.948-1.895-.46-2.256-1.121-2-3.67l.31-3.11 40.5-12.85C63.158 5.789 81.946.004 82.633 0c.764-.004 1.25 1.358 1.25 3.505 0 2.952-2.194 6.456-13.75 21.957-7.563 10.144-14.2 18.425-14.75 18.401-.55-.024-12.25-2.467-26-5.43zM66.868 20.39C73.54 11.26 78.41 4.002 77.69 4.264c-.72.261-16.693 5.36-35.497 11.33-18.805 5.969-34 11.043-33.768 11.275.326.326 42.6 9.62 45.635 10.032.373.05 6.136-7.38 12.807-16.51z"/></symbol><symbol id="pinterest" viewBox="0 0 384 512"><path d="M204 6.5C101.4 6.5 0 74.9 0 185.6 0 256 39.6 296 63.6 296c9.9 0 15.6-27.6 15.6-35.4 0-9.3-23.7-29.1-23.7-67.8 0-80.4 61.2-137.4 140.4-137.4 68.1 0 118.5 38.7 118.5 109.8 0 53.1-21.3 152.7-90.3 152.7-24.9 0-46.2-18-46.2-43.8 0-37.8 26.4-74.4 26.4-113.4 0-66.2-93.9-54.2-93.9 25.8 0 16.8 2.1 35.4 9.6 50.7-13.8 59.4-42 147.9-42 209.1 0 18.9 2.7 37.5 4.5 56.4 3.4 3.8 1.7 3.4 6.9 1.5 50.4-69 48.6-82.5 71.4-172.8 12.3 23.4 44.1 36 69.3 36 106.2 0 153.9-103.5 153.9-196.8C384 71.3 298.2 6.5 204 6.5z"/></symbol><symbol id="play" viewBox="0 0 447.988 512.021"><path d="M424.4 214.668l-352-208.1c-28.6-16.9-72.4-.5-72.4 41.3v416.1c0 37.5 40.7 60.1 72.4 41.3l352-208c31.4-18.5 31.5-64.1 0-82.6z"/></symbol><symbol id="twitter" viewBox="0 0 512 512"><path d="M459.37 151.716c.325 4.548.325 9.097.325 13.645 0 138.72-105.583 298.558-298.558 298.558-59.452 0-114.68-17.219-161.137-47.106 8.447.974 16.568 1.299 25.34 1.299 49.055 0 94.213-16.568 130.274-44.832-46.132-.975-84.792-31.188-98.112-72.772 6.498.974 12.995 1.624 19.818 1.624 9.421 0 18.843-1.3 27.614-3.573-48.081-9.747-84.143-51.98-84.143-102.985v-1.299c13.969 7.797 30.214 12.67 47.431 13.319-28.264-18.843-46.781-51.005-46.781-87.391 0-19.492 5.197-37.36 14.294-52.954 51.655 63.675 129.3 105.258 216.365 109.807-1.624-7.797-2.599-15.918-2.599-24.04 0-57.828 46.782-104.934 104.934-104.934 30.213 0 57.502 12.67 76.67 33.137 23.715-4.548 46.456-13.32 66.599-25.34-7.798 24.366-24.366 44.833-46.132 57.827 21.117-2.273 41.584-8.122 60.426-16.243-14.292 20.791-32.161 39.308-52.628 54.253z"/></symbol><symbol id="youtube" viewBox="0 0 576 512"><path d="M549.655 124.083c-6.281-23.65-24.787-42.276-48.284-48.597C458.781 64 288 64 288 64S117.22 64 74.629 75.486c-23.497 6.322-42.003 24.947-48.284 48.597-11.412 42.867-11.412 132.305-11.412 132.305s0 89.438 11.412 132.305c6.281 23.65 24.787 41.5 48.284 47.821C117.22 448 288 448 288 448s170.78 0 213.371-11.486c23.497-6.321 42.003-24.171 48.284-47.821 11.412-42.867 11.412-132.305 11.412-132.305s0-89.438-11.412-132.305zm-317.51 213.508V175.185l142.739 81.205-142.739 81.201z"/></symbol></svg>